# File created by Blade
# Date/Time:  Tue Apr 07 21:33:03 2015
# Frame Rate: 120.000 fps
#------------------------------------------------------
:FULLY-SPECIFIED
:DEGREES
434
root 35.332018 32.227607 -15.840796 26.308016 -72.764996 -5.305643
Spine -2.900344 -4.637296 0.070596
Head 24.916327 -4.582418 -0.975138
LeftShoulder -18.849104 46.014610 6.694441
LeftArm 53.879916 7.949228 -78.192594
LeftForeArm -4.075569 -0.000000 28.614299
LeftHand 6.278277 -0.000000 -4.693772
LeftHandThumb1 -26.253704 0.000000 33.147579
RightShoulder -4.435192 -8.330083 -17.215719
RightArm 13.333450 -10.026154 89.250653
RightForeArm -0.134834 -0.000000 30.937176
RightHand 6.222563 -0.000000 4.822141
RightHandThumb1 -24.326973 -0.000000 -32.862282
LeftUpLeg -28.469983 -1.293606 1.884012
LeftLeg 12.049803 -0.000000 -0.000000
LeftFoot -8.495180 16.261885 -13.035723
LeftToeBase -11.576843 -0.000000 0.000000
RightUpLeg -27.190944 7.653141 -0.635691
RightLeg 29.959007 -0.000000 -0.000000
RightFoot -15.925716 -14.818958 13.423742
RightToeBase -9.880893 -0.000000 0.000000
435
root 35.349406 32.210421 -15.927915 25.756450 -72.605574 -4.822769
Spine -3.067408 -4.626131 -0.043042
Head 24.564384 -4.448449 -0.975029
LeftShoulder -18.717015 45.984847 6.766942
LeftArm 53.865378 7.960107 -78.080007
LeftForeArm -4.145923 -0.000000 28.050790
LeftHand 6.273934 0.000000 -4.828140
LeftHandThumb1 -26.253704 0.000000 33.147579
RightShoulder -4.366057 -8.221710 -17.269542
RightArm 13.393866 -10.096408 89.270361
RightForeArm -0.132920 -0.000000 30.853811
RightHand 6.239128 -0.000000 4.850197
RightHandThumb1 -24.326973 -0.000000 -32.862282
LeftUpLeg -28.618847 -1.500603 1.966125
LeftLeg 12.333597 -0.000000 -0.000000
LeftFoot -8.580127 16.337634 -13.128075
LeftToeBase -11.549157 -0.000000 0.000000
RightUpLeg -26.650715 7.314003 -0.545850
RightLeg 28.907820 -0.000000 -0.000000
RightFoot -15.917696 -14.706668 13.456650
RightToeBase -9.673095 -0.000000 0.000000
436
root 35.365500 32.192736 -16.018777 25.177617 -72.415510 -4.300454
Spine -3.247438 -4.649380 -0.166829
Head 24.221856 -4.367879 -0.974392
LeftShoulder -18.694952 46.024098 6.752886
LeftArm 53.964184 7.968316 -77.958302
LeftForeArm -4.219984 -0.000000 27.470623
LeftHand 6.240199 -0.000000 -4.908788
LeftHandThumb1 -26.253704 0.000000 33.147579
RightShoulder -4.304871 -8.113056 -17.309280
RightArm 13.445332 -10.205741 89.273616
RightForeArm -0.144051 -0.000000 30.804743
RightHand 6.185479 -0.000000 4.912105
RightHandThumb1 -24.326973 -0.000000 -32.862282
LeftUpLeg -28.801700 -1.719671 2.048455
LeftLeg 12.661835 -0.000000 -0.000000
LeftFoot -8.631901 16.373572 -13.165844
LeftToeBase -11.622459 -0.000000 0.000000
RightUpLeg -26.122489 6.988391 -0.450057
RightLeg 27.866575 -0.000000 -0.000000
RightFoot -15.736028 -14.751549 13.193460
RightToeBase -10.544035 -0.000000 0.000000
437
root 35.384048 32.175336 -16.112370 24.625071 -72.206292 -3.824371
Spine -3.396800 -4.659864 -0.267600
Head 23.893891 -4.278946 -0.997541
LeftShoulder -18.567432 45.992735 6.805646
LeftArm 53.963364 7.948773 -77.874963
LeftForeArm -4.236497 -0.000000 26.933809
LeftHand 6.174324 -0.000000 -4.935943
LeftHandThumb1 -26.253704 0.000000 33.147579
RightShoulder -4.261948 -8.014645 -17.357636
RightArm 13.531440 -10.345813 89.256410
RightForeArm -0.082411 -0.000000 30.740280
RightHand 6.237218 -0.000000 4.983641
RightHandThumb1 -24.326973 -0.000000 -32.862282
LeftUpLeg -28.983062 -1.971117 2.158396
LeftLeg 13.004537 -0.000000 -0.000000
LeftFoot -8.717808 16.426587 -13.249427
LeftToeBase -11.608758 -0.000000 0.000000
RightUpLeg -25.594631 6.651647 -0.328736
RightLeg 26.893018 -0.000000 -0.000000
RightFoot -15.700386 -14.610032 13.121177
RightToeBase -10.866456 -0.000000 0.000000
438
root 35.405613 32.158264 -16.211454 24.172369 -71.983104 -3.418286
Spine -3.574983 -4.690017 -0.347783
Head 23.571066 -4.214959 -1.014223
LeftShoulder -18.468215 45.937429 6.844269
LeftArm 53.921637 7.927301 -77.798260
LeftForeArm -4.201915 -0.000000 26.456497
LeftHand 6.148585 -0.000000 -4.902796
LeftHandThumb1 -26.253704 0.000000 33.147579
RightShoulder -4.208110 -7.905886 -17.404594
RightArm 13.610953 -10.507369 89.238684
RightForeArm -0.010106 -0.000000 30.705234
RightHand 6.225905 -0.000000 5.045521
RightHandThumb1 -24.326973 -0.000000 -32.862282
LeftUpLeg -29.232756 -2.243791 2.313403
LeftLeg 13.400703 -0.000000 -0.000000
LeftFoot -8.785365 16.470772 -13.339675
LeftToeBase -11.666536 -0.000000 0.000000
RightUpLeg -25.137057 6.339348 -0.169244
RightLeg 26.022039 -0.000000 -0.000000
RightFoot -15.511095 -14.596764 12.854251
RightToeBase -11.936195 -0.000000 0.000000
439
root 35.429852 32.141675 -16.314410 23.719331 -71.732141 -2.996901
Spine -3.756135 -4.736995 -0.435380
Head 23.249396 -4.167438 -1.023700
LeftShoulder -18.377139 45.871390 6.888044
LeftArm 53.900668 7.919314 -77.744171
LeftForeArm -4.228756 0.000000 25.987536
LeftHand 6.096580 0.000000 -4.954125
LeftHandThumb1 -26.253704 0.000000 33.147579
RightShoulder -4.149110 -7.798008 -17.436611
RightArm 13.696883 -10.690349 89.211667
RightForeArm 0.110322 -0.000000 30.684501
RightHand 6.209072 -0.000000 4.843776
RightHandThumb1 -24.326973 -0.000000 -32.862282
LeftUpLeg -29.536998 -2.551382 2.479663
LeftLeg 13.864511 -0.000000 -0.000000
LeftFoot -8.896580 16.514655 -13.531897
LeftToeBase -11.597827 -0.000000 0.000000
RightUpLeg -24.721915 6.043605 -0.006632
RightLeg 25.230875 -0.000000 -0.000000
RightFoot -15.490905 -14.571386 12.919646
RightToeBase -12.317426 -0.000000 0.000000
440
root 35.456340 32.127470 -16.423094 23.515873 -71.480292 -2.807951
Spine -3.955577 -4.759093 -0.441217
Head 22.932840 -4.133569 -1.045722
LeftShoulder -18.352984 45.863436 6.838973
LeftArm 53.927784 7.853295 -77.713549
LeftForeArm -4.236364 -0.000000 25.564540
LeftHand 6.145667 -0.000000 -5.150167
LeftHandThumb1 -26.253704 0.000000 33.147579
RightShoulder -4.091198 -7.695620 -17.473202
RightArm 13.759245 -10.861124 89.168227
RightForeArm 0.273837 -0.000000 30.741437
RightHand 6.218152 -0.000000 4.907250
RightHandThumb1 -24.326973 -0.000000 -32.862282
LeftUpLeg -29.885053 -2.825253 2.731322
LeftLeg 14.342511 -0.000000 -0.000000
LeftFoot -8.997601 16.508485 -13.806970
LeftToeBase -11.609751 -0.000000 0.000000
RightUpLeg -24.299387 5.956326 0.178858
RightLeg 24.348645 -0.000000 -0.000000
RightFoot -15.473184 -14.677968 13.077252
RightToeBase -12.603534 -0.000000 0.000000
441
root 35.483309 32.110532 -16.529801 23.144457 -71.235175 -2.474125
Spine -4.119384 -4.791532 -0.499613
Head 22.612707 -4.108486 -1.086372
LeftShoulder -18.311052 45.801559 6.816328
LeftArm 53.908740 7.833969 -77.653578
LeftForeArm -4.284668 -0.000000 25.182270
LeftHand 6.081740 -0.000000 -5.040638
LeftHandThumb1 -26.253704 0.000000 33.147579
RightShoulder -4.027388 -7.583907 -17.524685
RightArm 13.838877 -10.915035 89.183344
RightForeArm 0.351614 -0.000000 30.731254
RightHand 6.238871 0.000000 4.843727
RightHandThumb1 -24.326973 -0.000000 -32.862282
LeftUpLeg -30.214334 -3.115533 2.933016
LeftLeg 14.837707 -0.000000 -0.000000
LeftFoot -9.099995 16.512557 -14.059541
LeftToeBase -11.579138 -0.000000 0.000000
RightUpLeg -23.950910 5.688128 0.357838
RightLeg 23.686377 -0.000000 -0.000000
RightFoot -15.436618 -14.655465 13.044321
RightToeBase -12.885971 -0.000000 0.000000
442
root 35.513381 32.093957 -16.639142 22.876171 -70.956491 -2.252180
Spine -4.262118 -4.788007 -0.505486
Head 22.287622 -4.171755 -1.153239
LeftShoulder -18.201582 45.750129 6.831384
LeftArm 53.899137 7.790661 -77.654414
LeftForeArm -4.271464 -0.000000 24.845550
LeftHand 6.023270 -0.000000 -4.982987
LeftHandThumb1 -26.253704 0.000000 33.147579
RightShoulder -4.010773 -7.479142 -17.588967
RightArm 13.920969 -10.969486 89.201264
RightForeArm 0.450166 -0.000000 30.724237
RightHand 6.359090 -0.000000 4.693678
RightHandThumb1 -24.326973 -0.000000 -32.862282
LeftUpLeg -30.575356 -3.402853 3.176048
LeftLeg 15.385194 -0.000000 -0.000000
LeftFoot -9.204037 16.474912 -14.357882
LeftToeBase -11.567078 -0.000000 0.000000
RightUpLeg -23.602674 5.431659 0.570046
RightLeg 22.995382 -0.000000 -0.000000
RightFoot -15.419599 -14.648817 13.073578
RightToeBase -13.142032 -0.000000 0.000000
443
root 35.546038 32.078229 -16.747088 22.497650 -70.732654 -1.945586
Spine -4.358410 -4.770089 -0.574721
Head 21.968289 -4.210310 -1.159482
LeftShoulder -18.141429 45.695228 6.822832
LeftArm 53.888263 7.758133 -77.647335
LeftForeArm -4.312044 0.000000 24.554380
LeftHand 6.085474 -0.000000 -4.990509
LeftHandThumb1 -26.253704 0.000000 33.147579
RightShoulder -3.955292 -7.382350 -17.640949
RightArm 14.018611 -11.065160 89.178698
RightForeArm 0.521006 -0.000000 30.763248
RightHand 6.327013 -0.000000 4.933408
RightHandThumb1 -24.326973 -0.000000 -32.862282
LeftUpLeg -30.903231 -3.610037 3.347865
LeftLeg 15.929220 -0.000000 -0.000000
LeftFoot -9.282325 16.386452 -14.668420
LeftToeBase -11.476884 -0.000000 0.000000
RightUpLeg -23.222725 5.253812 0.710699
RightLeg 22.255140 -0.000000 -0.000000
RightFoot -15.437714 -14.644420 13.193499
RightToeBase -13.458292 -0.000000 0.000000
